<svg id="レイヤー_1" data-name="レイヤー 1" xmlns="http://www.w3.org/2000/svg" viewBox="0 0 288.9 267.44"><defs><style>.cls-1{fill:#2f201b;}.cls-2{fill:#34b891;}.cls-3{fill:#2cacd5;}.cls-4{fill:#9c72ad;}.cls-5{fill:#f4b24f;}.cls-6{fill:#e56d5d;}</style></defs><path class="cls-1" d="M67.45,266c0,.09-.08.09-.17.09a12.12,12.12,0,0,1-3.19,4.33,7.09,7.09,0,0,0-.81-.57,8.79,8.79,0,0,0,2.7-3.35H56.4v-.9H66.55l.16-.09Zm-5.24,2.46c0,.08-.16.16-.33.24-.4,3.2-1.47,6.22-4.25,7.78a6.54,6.54,0,0,0-.82-.66c2.7-1.47,3.68-4.33,4-7.52Z" transform="translate(-8.05 -9.55)"/><path class="cls-1" d="M84.88,271.92a49.85,49.85,0,0,0-4.75-2.21v6.71h-1V264.8l1.39.08c0,.16-.08.24-.33.24v3.93l.17-.24A46.43,46.43,0,0,1,85.45,271Z" transform="translate(-8.05 -9.55)"/><path class="cls-1" d="M95.92,266.43a22.06,22.06,0,0,1,1.31,3.6l-.9.33a18.52,18.52,0,0,0-1.23-3.6Zm10.06.17a.42.42,0,0,1-.32.16c-1.39,4.75-3.6,7.61-7.78,9.49a4.74,4.74,0,0,0-.65-.73c4.09-1.72,6.22-4.42,7.53-9.33Zm-5.8-1a23.09,23.09,0,0,1,.73,3.84l-1,.16a20,20,0,0,0-.74-3.76Z" transform="translate(-8.05 -9.55)"/><path class="cls-1" d="M120.3,272.16l.49,4.17-1,.09-.49-4.18-5.07.66-.08-.9,5.07-.66-.33-3-4.25.57-.08-.9,4.25-.57-.33-2.7h1.31c0,.08-.08.24-.33.24l.25,2.29,3.93-.49.08.9-3.93.49.33,3,5.07-.66.08.9Zm2.78-7.28a7.78,7.78,0,0,1,1.72,2l-.57.41a9.15,9.15,0,0,0-1.72-2Zm1.64-.9a6.47,6.47,0,0,1,1.72,2l-.49.41a9.4,9.4,0,0,0-1.72-1.88Z" transform="translate(-8.05 -9.55)"/><path class="cls-1" d="M141.25,267.33a15.13,15.13,0,0,1-4.09.74,36.74,36.74,0,0,1-2.46,8.43l-1-.33a31.41,31.41,0,0,0,2.46-8h-2.46v-.9h2.62c.16-.9.24-1.8.33-2.62l1.39.17c0,.16-.17.24-.41.24-.08.58-.25,1.31-.33,2.13a13.79,13.79,0,0,0,3.76-.74Zm3.6,9h-1.23a11.82,11.82,0,0,1-3.19-.32,1.85,1.85,0,0,1-1.47-1.89,3.24,3.24,0,0,1,.82-2l.81.33a2.45,2.45,0,0,0-.73,1.47c0,1.06,1,1.31,3.43,1.31a9.18,9.18,0,0,0,1.48-.08v1.14Zm-5.24-6.54a15.85,15.85,0,0,1,4.91-.66v.9a17.3,17.3,0,0,0-4.66.58Z" transform="translate(-8.05 -9.55)"/><path class="cls-1" d="M162.93,267.17a36.42,36.42,0,0,1-5.81.82,13.32,13.32,0,0,1-.65,3.52,7.1,7.1,0,0,1,3.84-1.39c2,0,3.19,1.06,3.19,2.86,0,2.7-2.7,3.6-7,3.68-.09-.24-.17-.65-.25-.9,3.85-.08,6.38-.74,6.38-2.78,0-1.23-.82-2.05-2.37-2.05a5.68,5.68,0,0,0-4.17,2.05l-.9-.41a11,11,0,0,0,1.06-4.58h-3.11v-.9h3.19a24.46,24.46,0,0,0,.08-2.46l1.4.17c0,.24-.17.24-.41.32,0,.66-.09,1.4-.09,2a26.94,26.94,0,0,0,5.49-.82Z" transform="translate(-8.05 -9.55)"/><path class="cls-1" d="M178.64,266.84c-.08.08-.16.25-.33.25-.49,4.17-1.88,7.77-4.09,7.77-1.14,0-2.13-1.14-2.13-3.27a5.91,5.91,0,0,1,6.06-5.89c3.84,0,5.56,2.45,5.56,5.07,0,3.19-1.88,4.75-5.07,5.48a2.65,2.65,0,0,0-.57-.82q4.67-.85,4.66-4.66c0-2.21-1.39-4.25-4.58-4.25h-.41Zm-1.23-.16a5,5,0,0,0-4.42,4.91c0,1.47.66,2.37,1.23,2.37C175.86,274,177.08,270.36,177.41,266.68Z" transform="translate(-8.05 -9.55)"/><path class="cls-1" d="M203.43,267.66H201a3.07,3.07,0,0,0,.57.16c0,.09-.17.17-.33.17a13.38,13.38,0,0,1-3.27,5.32,13.49,13.49,0,0,0,5.64,2.7,5.82,5.82,0,0,0-.65.9,13.32,13.32,0,0,1-5.73-3,16,16,0,0,1-5.64,3,4.67,4.67,0,0,0-.49-.82,16.71,16.71,0,0,0,5.48-2.7,15,15,0,0,1-3.36-5.57l.58-.16h-2.62v-.9h5.64v-2.37l1.23.08c0,.08-.08.16-.24.16v2.05h5.72v1Zm-9.33,0a13.15,13.15,0,0,0,3.19,5.07,11.94,11.94,0,0,0,3-5.07Z" transform="translate(-8.05 -9.55)"/><path class="cls-1" d="M212.51,276.91v-7.78a12.58,12.58,0,0,1-1.8,2.29,5.35,5.35,0,0,0-.49-.9,19,19,0,0,0,3.68-6l1.07.41c-.09.08-.17.16-.33.08a23.44,23.44,0,0,1-1.39,2.86l.41.09c0,.08-.08.16-.25.16v8.75h-.9Zm4.83-2.05c0,.74.16.9,1,.9h2.78c.74,0,.9-.49,1-2.54a2.75,2.75,0,0,0,.9.41c-.17,2.21-.41,2.95-1.8,2.95h-2.87c-1.39,0-1.8-.41-1.8-1.8V264.72l1.15.08c0,.08-.08.16-.25.16v5a25.94,25.94,0,0,0,4.26-2.94l.73.9c-.08,0-.16.08-.24,0a25.32,25.32,0,0,1-4.75,2.94v4Z" transform="translate(-8.05 -9.55)"/><path class="cls-1" d="M241.31,265.29l.66.41c0,.08-.08.08-.17.08a12.83,12.83,0,0,1-2.45,3.19,8.54,8.54,0,0,0,3.11,1.88,2.44,2.44,0,0,0-.57.74,8.34,8.34,0,0,1-3-1.88v.73h-5.4v-.82a10.39,10.39,0,0,1-3.27,2.21,2.37,2.37,0,0,0-.5-.73,8.82,8.82,0,0,0,2.79-1.64c-.41-.33-1-.74-1.48-1.06l.49-.41a13.89,13.89,0,0,1,1.56,1,4.33,4.33,0,0,0,.74-.9,9.91,9.91,0,0,0-1.56-.9l.41-.49c.49.24,1.06.57,1.55.82a5.21,5.21,0,0,0,.74-1.56h-2.29a10.87,10.87,0,0,1-2.37,2.38c-.17-.17-.41-.5-.66-.58a9.36,9.36,0,0,0,2.95-3.43l1.06.16c0,.08-.08.16-.24.16-.09.17-.25.41-.33.58h2.45l.58.24c0,.08-.09.08-.09.17a9.46,9.46,0,0,1-2.37,3.92h5.24a10.17,10.17,0,0,1-2.62-4.82l.82-.17a10.94,10.94,0,0,0,1.88,3.77,16.25,16.25,0,0,0,1.8-2.3h-2.86v-.73Zm-7.69,8.59c0,.08-.16.16-.33.08a10.2,10.2,0,0,1-2.7,2.62,5.8,5.8,0,0,0-.73-.57,8.8,8.8,0,0,0,2.62-2.54Zm7.69-1.06H236.4v3.1c0,1-.49,1.07-2.7,1.07a1.76,1.76,0,0,0-.32-.82h1.31c.73,0,.81,0,.81-.25v-3h-4.66v-.82h10.47Zm-.24,3.84a18.59,18.59,0,0,0-2.87-2.7l.74-.41a18.1,18.1,0,0,1,2.86,2.62Z" transform="translate(-8.05 -9.55)"/><path class="cls-2" d="M276.09,229.45v2.13a1.72,1.72,0,1,1-3.44,0v-2.13H251.79v4.17h16.69a6.2,6.2,0,0,0,5.89,4,6.4,6.4,0,0,0,5.89-4H297v-4.17Z" transform="translate(-8.05 -9.55)"/><path d="M260.05,207.93v-1.06a1.25,1.25,0,0,1,1.14-1.23,1.19,1.19,0,0,1,1.48,1l.24,1q2.08,10.92,4.18,21.84h5.56c-1.47-8.1-3-16.12-4.58-24.22a7.81,7.81,0,0,0-1.56-3.19c-1.22-1.55-3.11-1.88-5.07-2a6.88,6.88,0,0,0-7.28,7.2c.08,7.36.08,14.81.08,22.17h5.81Z" transform="translate(-8.05 -9.55)"/><path d="M284.51,214.64c.49-2.62,1-5.23,1.56-7.85a1.3,1.3,0,0,1,1.47-1.15,1.28,1.28,0,0,1,1.23,1.31v22.42h5.89V206.71a6.69,6.69,0,0,0-1.8-4.67c-1.88-2-4.26-2.29-6.79-2a5.68,5.68,0,0,0-5.08,4.25c-.24.82-.4,1.72-.57,2.62-1.39,7.45-2.78,15-4.17,22.42h5.56C282.71,224.54,283.61,219.55,284.51,214.64Z" transform="translate(-8.05 -9.55)"/><path d="M288.77,234.85v7.2c0,.66.24,1,1,1,1.31,0,2.54-.08,3.84,0,.82,0,1.07-.32,1.07-1.06v-8.26h-5.89Z" transform="translate(-8.05 -9.55)"/><path d="M254.16,241.4v.73c0,.58.24.82.82.82h3.6c1.47,0,1.47,0,1.47-1.47v-7.86h-5.89Z" transform="translate(-8.05 -9.55)"/><path d="M14,233.46v8.43c0,.73-.24,1.06-1.06,1.06a30.91,30.91,0,0,0-3.85,0c-.73,0-1-.24-1-1V209.65c0-2.37.49-1.06,1.72-3.11A10.91,10.91,0,0,1,18.52,201c3.11-.33,6.22.65,9.33.65.49,0,.73.09.73.58v3.11c0,.65-.4.73-.9.73-2,0-4.09-.08-6.05,0a7.53,7.53,0,0,0-5.56,2.13,7.12,7.12,0,0,0-2,5c-.08,1.55,0,3.19-.08,4.75,0,.81.25,1.06,1.06,1.06H27.44c1.14,0,1.14.08,1.14,1.14v3c0,.82-.24,1.07-1.06,1.07H15.25c-1.23,0-1.23,0-1.23,1.22Z" transform="translate(-8.05 -9.55)"/><path class="cls-3" d="M35.05,203.19a29.8,29.8,0,0,0-13.34-3,29.73,29.73,0,0,0-13.33,3l-.25.08v6.22l.65-.41a25.7,25.7,0,0,1,12.93-3.27,25.68,25.68,0,0,1,12.93,3.27l.65.41v-6.14Z" transform="translate(-8.05 -9.55)"/><path class="cls-1" d="M203.27,232.07v.82c0,2.94-1.48,6.3-3,9.16l-.49,1h6.55l.16-.41a23.82,23.82,0,0,0,2.62-9.73v-.82Z" transform="translate(-8.05 -9.55)"/><path class="cls-4" d="M206.29,222.33h0c-1.39-2.94-2.78-5.72-2.78-9.41,0-4.9,2.54-9.16,4-11.2l.74-1.07h-7.12L201,201a23.17,23.17,0,0,0-3.44,11.86c0,5,1.72,8.59,3.27,11.78,1.23,2.54,2.29,4.75,2.46,7.37h6C209.08,228.22,207.68,225.2,206.29,222.33Z" transform="translate(-8.05 -9.55)"/><path d="M226.59,243h-7.94c-.74,0-1.06-.24-1.06-1a21.23,21.23,0,0,0,0-3.19c0-.82.32-1.06,1.06-1.06h14.4a5.18,5.18,0,0,0,4.09-1.8,5.09,5.09,0,0,0-.82-7.37c-2-1.47-4.17-2.7-6.22-4-2.78-1.72-5.64-3.35-8.26-5.32a10.35,10.35,0,0,1-3-13.25,10.09,10.09,0,0,1,8.84-5.4c3.93-.08,7.86,0,11.78-.08.74,0,1,.33,1,1-.08.9,0,1.88,0,2.78,0,1.39,0,1.39-1.3,1.39-3.36,0-6.8-.08-10.15,0a6.32,6.32,0,0,0-2.95.74,5.06,5.06,0,0,0-.49,8.51c1.89,1.39,3.85,2.53,5.81,3.76,2.78,1.8,5.73,3.44,8.43,5.4,3.85,2.78,5,6.71,4,11.21a10.23,10.23,0,0,1-9.33,7.53c-2.7.24-5.32.16-7.93.16Z" transform="translate(-8.05 -9.55)"/><path d="M61.88,234c0,.41.09.66.09.9v5.4a1.43,1.43,0,0,1-.82,1.39,16.93,16.93,0,0,1-9.33,2,15.61,15.61,0,0,1-9.33-3.69,15.17,15.17,0,0,1-3.11-19.3,15.13,15.13,0,0,1,10.56-7,16,16,0,0,1,13.34,3.19,13.11,13.11,0,0,1,5.48,10.31c.16,5.07.08,10.14.16,15.22,0,.65-.24.9-.9.9-1.14,0-2.37-.08-3.52,0-.82.08-1.14-.25-1.14-1.15V228.63a10.31,10.31,0,1,0-20.54,1.31,10,10,0,0,0,6.71,8.27c3.93,1.47,7.53.49,10.64-2.29C60.82,235.26,61.31,234.61,61.88,234Z" transform="translate(-8.05 -9.55)"/><path d="M173.32,233.46v-8.34A11.72,11.72,0,0,1,184,213.33c.74-.08,1.39-.08,2.13-.16.57-.08.9.16.9.82v3.35c0,.66-.25.82-.9.82a7.55,7.55,0,0,0-6.06,3.19,6.24,6.24,0,0,0-1.31,4v16.45c0,1.14,0,1.14-1.14,1.14h-3.44c-.74,0-1-.24-1-1C173.32,239.11,173.32,236.24,173.32,233.46Z" transform="translate(-8.05 -9.55)"/><path d="M109.67,220.86V206.79c0-1.15,0-1.23,1.22-1.23h3.19c1.15,0,1.15,0,1.15,1.23v5.81c0,.82.25,1.06,1.06,1h6.3c.74,0,1.07.24,1.07,1.06s0,1.88,0,2.78c0,1.15,0,1.15-1.15,1.15h-6.22c-.81,0-1.06.25-1.06,1.06,0,4.83.08,9.66,0,14.49-.08,2.78,2,3.84,3.85,3.92,1.22.08,2.45,0,3.68,0,.65,0,.9.25.9.9v3.19c0,.41-.08.82-.66.82a62.7,62.7,0,0,1-6.71-.24,7.73,7.73,0,0,1-6.54-7.86C109.67,230.11,109.67,225.52,109.67,220.86Z" transform="translate(-8.05 -9.55)"/><polygon class="cls-5" points="126.82 195.19 126.82 200.92 154.55 198.71 154.55 197.32 126.82 195.19"/><path d="M86.1,224.54a9.29,9.29,0,0,1,8.84-5.89h3.44c.57,0,.81-.24.73-.73v-3.44c0-.66-.33-.82-.9-.82H91.26L86.1,224.54" transform="translate(-8.05 -9.55)"/><path d="M91,242.54l-4.33-9.08a5,5,0,0,0,.81,1.06A9.33,9.33,0,0,0,95,238h3.11c.57,0,.9.17.9.82v3.27c0,.58-.25.82-.82.82H91.26l-.25-.41" transform="translate(-8.05 -9.55)"/><path class="cls-6" d="M85.53,231a9.06,9.06,0,0,0,1.23,2.53Z" transform="translate(-8.05 -9.55)"/><path class="cls-6" d="M86,224.62Z" transform="translate(-8.05 -9.55)"/><path class="cls-6" d="M86.76,215.87A13.72,13.72,0,0,1,91,214.15l.25-.49H84.63l-6.95,14.65L84.63,243h6.63l-.17-.41a15.07,15.07,0,0,1-5.56-2.62A14.5,14.5,0,0,1,86.76,215.87Z" transform="translate(-8.05 -9.55)"/><path class="cls-6" d="M85.53,231l-1.23-2.7L86,224.62h0v-.08l4.91-10.39a14.56,14.56,0,0,0-5.56,25.77,15,15,0,0,0,5.56,2.62l-4.34-9.08C86.18,232.64,85.86,231.82,85.53,231Z" transform="translate(-8.05 -9.55)"/><path d="M148.37,213.09a15.23,15.23,0,1,0,15.79,15.22A15.47,15.47,0,0,0,148.37,213.09Zm-.09,25.53a10.23,10.23,0,1,1,10.31-10.23A10.3,10.3,0,0,1,148.28,238.62Z" transform="translate(-8.05 -9.55)"/><path class="cls-3" d="M90.22,18.78c-12-6.06-26.09-9.23-40.79-9.23A90.1,90.1,0,0,0,8.77,18.78l-.72.43V29.88l2-1.15c11-6.49,24.94-9.95,39.5-9.95s28.54,3.6,39.5,10l2,1.15V19.21Z" transform="translate(-8.05 -9.55)"/><path class="cls-3" d="M90.22,42.71c-12-6.06-26.09-9.23-40.79-9.23a91.13,91.13,0,0,0-40.8,9.23L8.05,43V53.67l2-1.16C21,46,35,42.57,49.57,42.57s28.54,3.6,39.5,9.94l2,1.16V43Z" transform="translate(-8.05 -9.55)"/><path class="cls-3" d="M90.22,66.64a90.79,90.79,0,0,0-40.79-9.23A90.23,90.23,0,0,0,8.77,66.64l-.72.29V77.6l2-1.16C21,70,35,66.5,49.57,66.5s28.54,3.6,39.5,9.94l2,1.16V66.93Z" transform="translate(-8.05 -9.55)"/><path class="cls-2" d="M203.39,98.93v4.47a3.75,3.75,0,1,1-7.49,0V98.93H106.23v8.94H187.1a13.42,13.42,0,0,0,25.09,0h80.87V98.93Z" transform="translate(-8.05 -9.55)"/><path class="cls-2" d="M203.39,127.48V132a3.75,3.75,0,0,1-7.49,0v-4.47H106.23v8.94H187.1a13.42,13.42,0,0,0,25.09,0h80.87v-8.94Z" transform="translate(-8.05 -9.55)"/><path class="cls-2" d="M203.39,156.17v4.47a3.75,3.75,0,0,1-7.49,0v-4.47H106.23v8.93H187.1a13.42,13.42,0,0,0,25.09,0h80.87v-8.93Z" transform="translate(-8.05 -9.55)"/><polygon class="cls-5" points="183.38 2.74 183.38 18.6 100.48 12.25 100.48 9.23 183.38 2.74"/><polygon class="cls-5" points="100.48 27.82 100.48 43.68 183.38 37.34 183.38 34.31 100.48 27.82"/><polygon class="cls-5" points="183.38 52.91 183.38 68.91 100.48 62.42 100.48 59.4 183.38 52.91"/><polygon class="cls-6" points="243.49 63.58 201.97 49.02 201.97 58.82 243.49 73.38 284.87 58.82 284.87 49.02 243.49 63.58"/><polygon class="cls-6" points="243.49 40.94 201.97 26.38 201.97 36.19 243.49 50.74 284.87 36.19 284.87 26.38 243.49 40.94"/><polygon class="cls-6" points="243.49 18.16 201.97 3.6 201.97 13.41 243.49 27.97 284.87 13.41 284.87 3.6 243.49 18.16"/><path class="cls-4" d="M25.93,132.81l-1.16.58,1.16-.58c-2.74-5.76-5.48-11.1-5.48-18.45,0-9.66,4.9-17.88,7.78-21.91l.72-1H17.85a45.26,45.26,0,0,0-6.48,22.77c0,9.81,3.46,16.87,6.48,23.07,2.6,5.33,4.91,10.09,4.91,16,0,5.63-2.89,12.26-5.77,18l-.29,1.16H26.79c2.45-5.48,5.05-12.11,5.05-19C31.84,145.07,28.81,138.87,25.93,132.81Z" transform="translate(-8.05 -9.55)"/><path class="cls-4" d="M53.61,132.81l-1.16.58,1.16-.58h0c-2.74-5.76-5.48-11.1-5.48-18.45,0-9.66,4.9-17.88,7.78-21.91l.72-1H45.53a45.26,45.26,0,0,0-6.48,22.77c0,9.81,3.46,16.87,6.48,23.07,2.6,5.33,4.9,10.09,4.9,16,0,5.63-2.88,12.26-5.76,18l-.43,1H54.33c2.45-5.48,5-12.11,5-19C59.52,145.07,56.49,138.87,53.61,132.81Z" transform="translate(-8.05 -9.55)"/><path class="cls-4" d="M81.29,132.81l-1.16.58,1.16-.58h0c-2.74-5.76-5.48-11.1-5.48-18.45,0-9.66,4.9-17.88,7.78-21.91l.72-1H73.21a45.26,45.26,0,0,0-6.48,22.77c0,9.81,3.46,16.87,6.48,23.07,2.6,5.33,4.9,10.09,4.9,16,0,5.63-2.88,12.26-5.76,18l-.43,1H82c2.45-5.48,5-12.11,5-19C87.2,145.07,84.17,138.87,81.29,132.81Z" transform="translate(-8.05 -9.55)"/></svg>