<svg id="レイヤー_1" data-name="レイヤー 1" xmlns="http://www.w3.org/2000/svg" viewBox="0 0 400.97 76.12"><defs><style>.cls-1{fill:#2f201b;}.cls-2{fill:#34b891;}.cls-3{fill:#2cacd5;}.cls-4{fill:#9c72ad;}.cls-5{fill:#f4b24f;}.cls-6{fill:#e56d5d;}</style></defs><path class="cls-1" d="M213.51,61.48c0,.07-.06.07-.13.07a10,10,0,0,1-2.61,3.54,6.73,6.73,0,0,0-.66-.47,7,7,0,0,0,2.2-2.74h-7.82v-.73h8.29l.13-.07Zm-4.27,2c0,.06-.14.13-.27.2-.33,2.6-1.2,5.08-3.48,6.35a4.66,4.66,0,0,0-.66-.54c2.2-1.2,3-3.54,3.27-6.15Z"/><path class="cls-1" d="M227.75,66.29a41.4,41.4,0,0,0-3.88-1.8V70h-.8V60.48l1.14.07c0,.13-.07.2-.27.2V64l.13-.2a40,40,0,0,1,4.15,1.81Z"/><path class="cls-1" d="M236.77,61.82a17.08,17.08,0,0,1,1.07,2.94l-.74.26a15.27,15.27,0,0,0-1-2.94ZM245,62a.34.34,0,0,1-.27.13c-1.13,3.88-2.94,6.22-6.35,7.75a4.66,4.66,0,0,0-.53-.6c3.34-1.4,5.08-3.61,6.15-7.61Zm-4.74-.8a19.45,19.45,0,0,1,.6,3.14l-.81.13a15.86,15.86,0,0,0-.6-3.07Z"/><path class="cls-1" d="M256.68,66.49l.41,3.41-.81.07-.4-3.41-4.14.53-.07-.73,4.15-.53-.27-2.48-3.48.47-.06-.73,3.47-.47-.27-2.21h1.07c0,.07-.06.2-.26.2l.2,1.87,3.2-.4.07.74-3.21.4.27,2.47,4.14-.53.07.73ZM259,60.55a6.42,6.42,0,0,1,1.4,1.6l-.47.33a7.67,7.67,0,0,0-1.4-1.6Zm1.33-.74a5.3,5.3,0,0,1,1.41,1.6l-.4.34a7.49,7.49,0,0,0-1.41-1.54Z"/><path class="cls-1" d="M273.79,62.55a12.28,12.28,0,0,1-3.34.6,30.22,30.22,0,0,1-2,6.89l-.81-.27a25.35,25.35,0,0,0,2-6.55h-2v-.74h2.14c.14-.73.2-1.47.27-2.13l1.14.13c0,.13-.14.2-.34.2-.06.47-.2,1.07-.26,1.74a11.77,11.77,0,0,0,3.07-.6Zm2.94,7.35h-1a9.54,9.54,0,0,1-2.61-.27,1.5,1.5,0,0,1-1.2-1.53,2.67,2.67,0,0,1,.67-1.61l.67.27a2,2,0,0,0-.6,1.2c0,.87.8,1.07,2.8,1.07a8.18,8.18,0,0,0,1.21-.06v.93Zm-4.27-5.34a12.64,12.64,0,0,1,4-.54v.74a14.31,14.31,0,0,0-3.81.46Z"/><path class="cls-1" d="M291.5,62.42a30.88,30.88,0,0,1-4.74.67,11,11,0,0,1-.54,2.87,5.83,5.83,0,0,1,3.14-1.14c1.61,0,2.61.87,2.61,2.34,0,2.21-2.21,2.94-5.75,3-.06-.2-.13-.54-.2-.74,3.14-.06,5.21-.6,5.21-2.27,0-1-.66-1.67-1.93-1.67a4.63,4.63,0,0,0-3.41,1.67l-.74-.33a8.91,8.91,0,0,0,.87-3.74h-2.54v-.74h2.61a18.53,18.53,0,0,0,.07-2l1.13.13c0,.2-.13.2-.33.27,0,.53-.07,1.13-.07,1.6a22.31,22.31,0,0,0,4.48-.67Z"/><path class="cls-1" d="M304.33,62.15c-.06.07-.13.2-.26.2-.41,3.41-1.54,6.35-3.35,6.35-.93,0-1.73-.94-1.73-2.67a4.82,4.82,0,0,1,4.94-4.82c3.14,0,4.55,2,4.55,4.15,0,2.6-1.54,3.87-4.15,4.47a1.89,1.89,0,0,0-.46-.66q3.79-.7,3.8-3.81a3.37,3.37,0,0,0-3.74-3.48h-.33Zm-1-.13a4.08,4.08,0,0,0-3.61,4c0,1.2.54,1.93,1,1.93C302.06,68,303.06,65,303.33,62Z"/><path class="cls-1" d="M324.58,62.82h-2A3.24,3.24,0,0,0,323,63c0,.07-.13.14-.26.14a10.89,10.89,0,0,1-2.68,4.34,11,11,0,0,0,4.62,2.2,4.33,4.33,0,0,0-.54.74A10.77,10.77,0,0,1,319.5,68a13.09,13.09,0,0,1-4.61,2.41,4,4,0,0,0-.4-.67A13.3,13.3,0,0,0,319,67.5,12.44,12.44,0,0,1,316.23,63l.47-.13h-2.14v-.74h4.61V60.14l1,.07c0,.07-.07.14-.2.14V62h4.68v.8Zm-7.62,0A10.67,10.67,0,0,0,319.57,67,9.73,9.73,0,0,0,322,62.82Z"/><path class="cls-1" d="M332,70.37V64a10.67,10.67,0,0,1-1.47,1.87,4.4,4.4,0,0,0-.4-.73,15.79,15.79,0,0,0,3-4.95l.86.34a.19.19,0,0,1-.26.06A19.34,19.34,0,0,1,332.6,63l.34.07c0,.07-.07.13-.21.13V70.3H332Zm3.94-1.67c0,.6.14.73.8.73H339c.6,0,.73-.4.8-2.07a2.45,2.45,0,0,0,.73.34c-.13,1.8-.33,2.4-1.47,2.4h-2.34c-1.13,0-1.47-.33-1.47-1.47V60.41l.94.07c0,.07-.07.13-.2.13v4.08a20.42,20.42,0,0,0,3.47-2.41l.61.74c-.07,0-.14.07-.2,0a20.48,20.48,0,0,1-3.88,2.4V68.7Z"/><path class="cls-1" d="M355.52,60.88l.54.33c0,.07-.07.07-.14.07a10.39,10.39,0,0,1-2,2.61,6.89,6.89,0,0,0,2.54,1.53A2.16,2.16,0,0,0,356,66a6.84,6.84,0,0,1-2.47-1.54v.6h-4.41v-.67a8.58,8.58,0,0,1-2.68,1.81,1.8,1.8,0,0,0-.4-.61,7.11,7.11,0,0,0,2.28-1.33c-.34-.27-.81-.6-1.21-.87l.4-.33a12.69,12.69,0,0,1,1.27.8,3.09,3.09,0,0,0,.6-.74,7.41,7.41,0,0,0-1.26-.73l.33-.4,1.27.66a4.23,4.23,0,0,0,.6-1.27h-1.87a8.9,8.9,0,0,1-1.94,1.94c-.13-.13-.33-.4-.53-.47a7.62,7.62,0,0,0,2.4-2.8l.87.13c0,.07-.07.14-.2.14s-.2.33-.27.46h2l.47.2c0,.07-.07.07-.07.14a7.81,7.81,0,0,1-1.94,3.21h4.28a8.41,8.41,0,0,1-2.14-4l.67-.13a8.94,8.94,0,0,0,1.53,3.07,13.07,13.07,0,0,0,1.48-1.87h-2.34v-.6Zm-6.28,7c0,.06-.13.13-.27.06a8.15,8.15,0,0,1-2.2,2.14,6.63,6.63,0,0,0-.6-.47,7,7,0,0,0,2.14-2.07Zm6.28-.87h-4v2.54c0,.8-.4.87-2.2.87a1.46,1.46,0,0,0-.27-.67h1.07c.6,0,.67,0,.67-.2V67.09H347v-.66h8.55Zm-.2,3.14A15.38,15.38,0,0,0,353,68l.6-.33a14.18,14.18,0,0,1,2.34,2.14Z"/><path class="cls-2" d="M383.92,31.61v1.74a1.4,1.4,0,0,1-2.8,0V31.61h-17V35h13.63a5.07,5.07,0,0,0,4.81,3.27A5.22,5.22,0,0,0,387.33,35H401V31.61Z"/><path d="M370.83,14v-.86a1,1,0,0,1,.93-1A1,1,0,0,1,373,13l.2.81q1.69,8.91,3.4,17.84h4.55c-1.2-6.62-2.47-13.17-3.74-19.78a6.36,6.36,0,0,0-1.27-2.61c-1-1.27-2.54-1.53-4.15-1.67A5.62,5.62,0,0,0,366,13.43c.07,6,.07,12.1.07,18.11h4.75Z"/><path d="M390.81,19.51c.4-2.13.8-4.27,1.27-6.41a1.06,1.06,0,0,1,1.2-.94,1,1,0,0,1,1,1.07V31.54h4.81V13a5.44,5.44,0,0,0-1.47-3.81,6.06,6.06,0,0,0-5.54-1.6,4.64,4.64,0,0,0-4.15,3.47,19.72,19.72,0,0,0-.46,2.14c-1.14,6.08-2.28,12.23-3.41,18.31h4.54C389.34,27.6,390.07,23.52,390.81,19.51Z"/><path d="M394.28,36V41.9c0,.54.2.8.8.8,1.07,0,2.08-.06,3.15,0,.66,0,.86-.26.86-.87V35.08h-4.81Z"/><path d="M366,41.37V42c0,.47.21.67.67.67h2.94c1.21,0,1.21,0,1.21-1.21V35H366Z"/><path d="M169.88,34.88v6.89c0,.6-.2.87-.87.87a23.5,23.5,0,0,0-3.14,0c-.61,0-.81-.2-.81-.81V15.44c0-1.94.41-.87,1.41-2.54a8.89,8.89,0,0,1,7.08-4.55c2.54-.26,5.08.54,7.62.54.4,0,.6.06.6.47V11.9c0,.53-.33.6-.73.6-1.67,0-3.35-.07-4.95,0a6.17,6.17,0,0,0-4.54,1.73,5.83,5.83,0,0,0-1.61,4.08c-.06,1.27,0,2.61-.06,3.88,0,.67.2.87.86.87h10.1c.93,0,.93.06.93.93v2.47c0,.67-.2.87-.87.87h-10c-1,0-1,0-1,1Z"/><path class="cls-3" d="M187.05,10.16a25.26,25.26,0,0,0-21.79,0l-.2.06V15.3l.54-.33a22.22,22.22,0,0,1,21.12,0l.53.33v-5Z"/><path class="cls-1" d="M324.45,33.75v.67c0,2.4-1.2,5.14-2.41,7.48l-.4.8H327l.13-.33a19.51,19.51,0,0,0,2.14-7.95v-.67Z"/><path class="cls-4" d="M326.92,25.8h0c-1.14-2.41-2.27-4.68-2.27-7.69A16.54,16.54,0,0,1,327.92,9l.6-.86h-5.81l-.13.26A19,19,0,0,0,319.77,18a20.76,20.76,0,0,0,2.67,9.63,16,16,0,0,1,2,6h4.88A19.49,19.49,0,0,0,326.92,25.8Z"/><path d="M343.49,42.64H337c-.6,0-.87-.2-.87-.81a16.12,16.12,0,0,0,0-2.6c0-.67.27-.87.87-.87h11.76a4.21,4.21,0,0,0,3.34-1.47,4.16,4.16,0,0,0-.66-6c-1.61-1.2-3.41-2.2-5.08-3.27-2.27-1.4-4.61-2.74-6.75-4.34a8.46,8.46,0,0,1-2.41-10.83A8.23,8.23,0,0,1,344.43,8c3.21-.07,6.41,0,9.62-.07.6,0,.8.27.8.8-.06.74,0,1.54,0,2.28,0,1.13,0,1.13-1.06,1.13-2.74,0-5.55-.06-8.29,0a5.18,5.18,0,0,0-2.41.6,4.13,4.13,0,0,0-.4,7c1.54,1.14,3.14,2.08,4.75,3.08,2.27,1.47,4.67,2.8,6.88,4.41,3.14,2.27,4.08,5.48,3.27,9.15A8.33,8.33,0,0,1,350,42.5c-2.21.2-4.35.14-6.49.14Z"/><path d="M209,35.28c0,.34.07.54.07.74v4.41a1.18,1.18,0,0,1-.67,1.14,13.82,13.82,0,0,1-7.62,1.6,12.8,12.8,0,0,1-7.62-3,11.74,11.74,0,0,1-4.21-7.82,11.85,11.85,0,0,1,1.67-8,12.36,12.36,0,0,1,8.62-5.75,13.07,13.07,0,0,1,10.9,2.61,10.69,10.69,0,0,1,4.47,8.42c.14,4.14.07,8.29.14,12.43,0,.54-.2.74-.74.74-.93,0-1.94-.07-2.87,0-.67.06-.94-.2-.94-.94v-11A8.42,8.42,0,1,0,193.4,32a8.4,8.4,0,0,0,14.17,4.88C208.1,36.35,208.5,35.82,209,35.28Z"/><path d="M300,34.88V28.07a9.57,9.57,0,0,1,8.75-9.63c.61-.06,1.14-.06,1.74-.13s.74.13.74.67v2.74c0,.53-.2.67-.74.67a6.14,6.14,0,0,0-4.94,2.6,5.07,5.07,0,0,0-1.07,3.28V41.7c0,.94,0,.94-.94.94h-2.81c-.6,0-.8-.2-.8-.81C300,39.5,300,37.16,300,34.88Z"/><path d="M248,24.59V13.1c0-.94,0-1,1-1h2.61c.93,0,.93,0,.93,1v4.74c0,.67.2.87.87.8h5.15c.6,0,.86.21.86.87s0,1.54,0,2.28c0,.93,0,.93-.93.93h-5.08c-.67,0-.87.2-.87.87,0,3.94.07,7.89,0,11.83a3,3,0,0,0,3.14,3.21c1,.06,2,0,3,0,.53,0,.73.2.73.73V42c0,.33-.06.67-.53.67a52.83,52.83,0,0,1-5.48-.2A6.31,6.31,0,0,1,248.06,36C248,32.14,248,28.4,248,24.59Z"/><polygon class="cls-5" points="268.58 11.43 268.58 16.11 291.24 14.3 291.24 13.16 268.58 11.43"/><path d="M228.75,27.6A7.59,7.59,0,0,1,236,22.79h2.81q.69,0,.6-.6V19.38c0-.53-.27-.67-.74-.67H233l-4.21,8.89"/><path d="M232.76,42.3l-3.54-7.42a3.87,3.87,0,0,0,.67.87A7.62,7.62,0,0,0,236,38.63h2.53c.47,0,.74.13.74.66V42c0,.47-.2.67-.67.67H233l-.2-.34"/><path class="cls-6" d="M228.28,32.88a7.32,7.32,0,0,0,1,2.07Z"/><path class="cls-6" d="M228.68,27.67Z"/><path class="cls-6" d="M229.29,20.52a11.13,11.13,0,0,1,3.47-1.41l.2-.4h-5.41l-5.68,12,5.68,12H233l-.13-.34a12.32,12.32,0,0,1-4.55-2.14A11.84,11.84,0,0,1,229.29,20.52Z"/><path class="cls-6" d="M228.28,32.88l-1-2.21,1.4-3h0V27.6l4-8.49a11.9,11.9,0,0,0-4.54,21,12.27,12.27,0,0,0,4.54,2.14l-3.54-7.42C228.82,34.22,228.55,33.55,228.28,32.88Z"/><path d="M279.61,18.24a12.65,12.65,0,0,0-12.9,12.43,12.9,12.9,0,0,0,25.79,0A12.64,12.64,0,0,0,279.61,18.24Zm-.07,20.85A8.35,8.35,0,1,1,288,30.74,8.41,8.41,0,0,1,279.54,39.09Z"/><path class="cls-3" d="M38.09,4.28A42,42,0,0,0,19.18,0,41.76,41.76,0,0,0,.33,4.28L0,4.48V9.42l.94-.53A36.28,36.28,0,0,1,19.25,4.28,37,37,0,0,1,37.56,8.89l.93.53V4.48Z"/><path class="cls-3" d="M38.09,15.37a42,42,0,0,0-18.91-4.28A42.2,42.2,0,0,0,.27,15.37L0,15.5v4.95l.94-.54A36.38,36.38,0,0,1,19.25,15.3a37,37,0,0,1,18.31,4.61l.93.54V15.5Z"/><path class="cls-3" d="M38.09,26.46a42.12,42.12,0,0,0-18.91-4.27A41.89,41.89,0,0,0,.33,26.46L0,26.6v4.94L.94,31A36.28,36.28,0,0,1,19.25,26.4,37,37,0,0,1,37.56,31l.93.53V26.6Z"/><path class="cls-2" d="M90.55,41.43V43.5a1.74,1.74,0,1,1-3.47,0V41.43H45.51v4.15H83a6.22,6.22,0,0,0,11.63,0h37.49V41.43Z"/><path class="cls-2" d="M90.55,54.66v2.08a1.74,1.74,0,0,1-3.47,0V54.66H45.51v4.15H83a6.22,6.22,0,0,0,11.63,0h37.49V54.66Z"/><path class="cls-2" d="M90.55,68V70a1.74,1.74,0,0,1-3.47,0V68H45.51v4.15H83a6.22,6.22,0,0,0,11.63,0h37.49V68Z"/><polygon class="cls-5" points="85 1.27 85 8.62 46.58 5.68 46.58 4.28 85 1.27"/><polygon class="cls-5" points="46.58 12.9 46.58 20.25 85 17.31 85 15.9 46.58 12.9"/><polygon class="cls-5" points="85 24.53 85 31.94 46.58 28.94 46.58 27.53 85 24.53"/><polygon class="cls-6" points="112.87 29.47 93.63 22.72 93.63 27.27 112.87 34.02 132.05 27.27 132.05 22.72 112.87 29.47"/><polygon class="cls-6" points="112.87 18.98 93.63 12.23 93.63 16.77 112.87 23.52 132.05 16.77 132.05 12.23 112.87 18.98"/><polygon class="cls-6" points="112.87 8.42 93.63 1.67 93.63 6.21 112.87 12.96 132.05 6.21 132.05 1.67 112.87 8.42"/><path class="cls-4" d="M8.29,57.14l-.54.26.54-.26C7,54.46,5.75,52,5.75,48.58A18.19,18.19,0,0,1,9.36,38.43L9.69,38H4.54a21,21,0,0,0-3,10.56c0,4.54,1.6,7.82,3,10.69,1.21,2.47,2.28,4.68,2.28,7.42S5.48,72.31,4.14,75L4,75.52H8.69A22.23,22.23,0,0,0,11,66.69C11,62.82,9.62,59.94,8.29,57.14Z"/><path class="cls-4" d="M21.12,57.14l-.54.26.54-.26h0c-1.27-2.68-2.54-5.15-2.54-8.56a18.19,18.19,0,0,1,3.61-10.15l.33-.47H17.38a20.9,20.9,0,0,0-3,10.56c0,4.54,1.6,7.82,3,10.69,1.2,2.47,2.27,4.68,2.27,7.42S18.31,72.31,17,75l-.2.47h4.68a22.06,22.06,0,0,0,2.34-8.82C23.86,62.82,22.45,59.94,21.12,57.14Z"/><path class="cls-4" d="M34,57.14l-.54.26.54-.26h0c-1.27-2.68-2.54-5.15-2.54-8.56A18.19,18.19,0,0,1,35,38.43l.33-.47H30.21a20.9,20.9,0,0,0-3,10.56c0,4.54,1.6,7.82,3,10.69,1.2,2.47,2.27,4.68,2.27,7.42S31.14,72.31,29.81,75l-.21.47h4.68a22.06,22.06,0,0,0,2.34-8.82C36.69,62.82,35.28,59.94,34,57.14Z"/></svg>